<svg width="48" height="48" viewBox="0 0 48 48" fill="none" xmlns="http://www.w3.org/2000/svg">
<circle cx="24" cy="24" r="24" fill="#FBD436"/>
<path d="M16.5391 31H14.293V20.6582C13.4531 21.6022 12.4831 22.2956 11.3828 22.7383V20.248C12.0078 19.9941 12.6556 19.5417 13.3262 18.8906C13.9967 18.2331 14.4622 17.4779 14.7227 16.625H16.5391V31ZM21.8418 23.2754C21.2884 22.9889 20.8717 22.5983 20.5918 22.1035C20.3118 21.6087 20.1719 21.013 20.1719 20.3164C20.1719 19.1901 20.4909 18.2949 21.1289 17.6309C21.7669 16.9603 22.6263 16.625 23.707 16.625C24.8529 16.625 25.7253 16.9831 26.3242 17.6992C26.9232 18.4089 27.2227 19.2747 27.2227 20.2969C27.2227 20.9935 27.0762 21.599 26.7832 22.1133C26.4967 22.6211 26.1029 23.0085 25.6016 23.2754C26.2721 23.6009 26.7734 24.0599 27.1055 24.6523C27.4375 25.2383 27.6035 25.9609 27.6035 26.8203C27.6035 27.7057 27.4375 28.487 27.1055 29.1641C26.7799 29.8411 26.3275 30.3587 25.748 30.7168C25.1686 31.0749 24.5176 31.2539 23.7949 31.2539C22.6621 31.2539 21.7246 30.8633 20.9824 30.082C20.2467 29.2943 19.8789 28.2363 19.8789 26.9082C19.8789 26.0488 20.0482 25.3099 20.3867 24.6914C20.7253 24.0729 21.2103 23.6009 21.8418 23.2754ZM22.3008 20.5117C22.3008 21.0716 22.431 21.5013 22.6914 21.8008C22.9583 22.1003 23.2936 22.25 23.6973 22.25C24.1074 22.25 24.446 22.1003 24.7129 21.8008C24.9798 21.5013 25.1133 21.0716 25.1133 20.5117C25.1133 19.9714 24.9798 19.5514 24.7129 19.252C24.4525 18.9525 24.1237 18.8027 23.7266 18.8027C23.3099 18.8027 22.9681 18.9557 22.7012 19.2617C22.4342 19.5612 22.3008 19.9779 22.3008 20.5117ZM22.0957 26.6445C22.0957 27.4128 22.2585 28.0052 22.584 28.4219C22.9095 28.8385 23.3001 29.0469 23.7559 29.0469C24.2116 29.0469 24.5924 28.8483 24.8984 28.4512C25.2109 28.054 25.3672 27.4583 25.3672 26.6641C25.3672 25.9805 25.2077 25.4401 24.8887 25.043C24.5762 24.6458 24.1888 24.4473 23.7266 24.4473C23.2708 24.4473 22.8835 24.6491 22.5645 25.0527C22.252 25.4499 22.0957 25.9805 22.0957 26.6445ZM32.0762 28.9395V25.2188H29V22.6504H32.0762V18.9297H34.127V22.6504H37.2129V25.2188H34.127V28.9395H32.0762Z" fill="#333333"/>
</svg>
