<svg width="338" height="100" viewBox="0 0 338 100" fill="none" xmlns="http://www.w3.org/2000/svg">
<path d="M325.481 100H12.5185C5.50815 100 0 94.5 0 87.5V12.5C0 5.5 5.50815 0 12.5185 0H325.481C332.492 0 338 5.5 338 12.5V87.5C338 94.5 332.492 100 325.481 100Z" fill="black"/>
<path d="M325 2C330.75 2 335.5 6.75 335.5 12.5V87.5C335.5 93.25 330.75 98 325 98H12.5C6.75 98 2 93.25 2 87.5V12.5C2 6.75 6.75 2 12.5 2H325ZM325 0H12.5C5.5 0 0 5.75 0 12.5V87.5C0 94.5 5.5 100 12.5 100H325C332 100 337.5 94.5 337.5 87.5V12.5C337.5 5.75 332 0 325 0Z" fill="black"/>
<path d="M118.5 25.5C118.5 27.5 118 29.25 116.75 30.5C115.25 32 113.5 32.75 111.25 32.75C109 32.75 107.25 32 105.75 30.5C104.25 29 103.5 27.25 103.5 25C103.5 22.75 104.25 21 105.75 19.5C107.25 18 109 17.25 111.25 17.25C112.25 17.25 113.25 17.5 114.25 18C115.25 18.5 116 19 116.5 19.75L115.25 21C114.25 19.75 113 19.25 111.25 19.25C109.75 19.25 108.25 19.75 107.25 21C106 22 105.5 23.5 105.5 25.25C105.5 27 106 28.5 107.25 29.5C108.5 30.5 109.75 31.25 111.25 31.25C113 31.25 114.25 30.75 115.5 29.5C116.25 28.75 116.75 27.75 116.75 26.5H111.25V24.5H118.5V25.5ZM130 19.25H123.25V24H129.5V25.75H123.25V30.5H130V32.5H121.25V17.5H130V19.25ZM138.25 32.5H136.25V19.25H132V17.5H142.5V19.25H138.25V32.5ZM149.75 32.5V17.5H151.75V32.5H149.75ZM160.25 32.5H158.25V19.25H154V17.5H164.25V19.25H160V32.5H160.25ZM184 30.5C182.5 32 180.75 32.75 178.5 32.75C176.25 32.75 174.5 32 173 30.5C171.5 29 170.75 27.25 170.75 25C170.75 22.75 171.5 21 173 19.5C174.5 18 176.25 17.25 178.5 17.25C180.75 17.25 182.5 18 184 19.5C185.5 21 186.25 22.75 186.25 25C186.25 27.25 185.5 29 184 30.5ZM174.5 29.25C175.5 30.25 177 31 178.5 31C180 31 181.5 30.5 182.5 29.25C183.5 28.25 184.25 26.75 184.25 25C184.25 23.25 183.75 21.75 182.5 20.75C181.5 19.75 180 19 178.5 19C177 19 175.5 19.5 174.5 20.75C173.5 21.75 172.75 23.25 172.75 25C172.75 26.75 173.25 28.25 174.5 29.25ZM189 32.5V17.5H191.25L198.5 29.25V17.5H200.5V32.5H198.5L190.75 20.25V32.5H189Z" fill="white"/>
<path d="M170.25 54.5C164.25 54.5 159.5 59 159.5 65.25C159.5 71.25 164.25 76 170.25 76C176.25 76 181 71.5 181 65.25C181 58.75 176.25 54.5 170.25 54.5ZM170.25 71.5C167 71.5 164.25 68.75 164.25 65C164.25 61.25 167 58.5 170.25 58.5C173.5 58.5 176.25 61 176.25 65C176.25 68.75 173.5 71.5 170.25 71.5ZM147 54.5C141 54.5 136.25 59 136.25 65.25C136.25 71.25 141 76 147 76C153 76 157.75 71.5 157.75 65.25C157.75 58.75 153 54.5 147 54.5ZM147 71.5C143.75 71.5 141 68.75 141 65C141 61.25 143.75 58.5 147 58.5C150.25 58.5 153 61 153 65C153 68.75 150.25 71.5 147 71.5ZM119.25 57.75V62.25H130C129.75 64.75 128.75 66.75 127.5 68C126 69.5 123.5 71.25 119.25 71.25C112.5 71.25 107.5 66 107.5 59.25C107.5 52.5 112.75 47.25 119.25 47.25C122.75 47.25 125.5 48.75 127.5 50.5L130.75 47.25C128 44.75 124.5 42.75 119.5 42.75C110.5 42.75 102.75 50.25 102.75 59.25C102.75 68.25 110.5 75.75 119.5 75.75C124.5 75.75 128 74.25 131 71C134 68 135 63.75 135 60.5C135 59.5 135 58.5 134.75 57.75H119.25ZM232.75 61.25C231.75 58.75 229.25 54.5 223.75 54.5C218.25 54.5 213.75 58.75 213.75 65.25C213.75 71.25 218.25 76 224.25 76C229 76 232 73 233 71.25L229.5 68.75C228.25 70.5 226.75 71.75 224.25 71.75C221.75 71.75 220.25 70.75 219 68.5L233.25 62.5L232.75 61.25ZM218.25 64.75C218.25 60.75 221.5 58.5 223.75 58.5C225.5 58.5 227.25 59.5 227.75 60.75L218.25 64.75ZM206.5 75H211.25V43.75H206.5V75ZM199 56.75C197.75 55.5 195.75 54.25 193.25 54.25C188 54.25 183 59 183 65C183 71 187.75 75.5 193.25 75.5C195.75 75.5 197.75 74.25 198.75 73H199V74.5C199 78.5 196.75 80.75 193.25 80.75C190.5 80.75 188.5 78.75 188 77L184 78.75C185.25 81.5 188.25 85 193.5 85C199 85 203.5 81.75 203.5 74V55H199V56.75ZM193.5 71.5C190.25 71.5 187.5 68.75 187.5 65C187.5 61.25 190.25 58.5 193.5 58.5C196.75 58.5 199.25 61.25 199.25 65C199.25 68.75 196.75 71.5 193.5 71.5ZM254.5 43.75H243.25V75H248V63.25H254.5C259.75 63.25 264.75 59.5 264.75 53.5C264.75 47.5 259.75 43.75 254.5 43.75ZM254.75 58.75H248V48H254.75C258.25 48 260.25 51 260.25 53.25C260 56 258 58.75 254.75 58.75ZM283.5 54.25C280 54.25 276.5 55.75 275.25 59L279.5 60.75C280.5 59 282 58.5 283.75 58.5C286.25 58.5 288.5 60 288.75 62.5V62.75C288 62.25 286 61.5 284 61.5C279.5 61.5 275 64 275 68.5C275 72.75 278.75 75.5 282.75 75.5C286 75.5 287.5 74 288.75 72.5H289V75H293.5V63C293 57.5 288.75 54.25 283.5 54.25ZM283 71.5C281.5 71.5 279.25 70.75 279.25 68.75C279.25 66.25 282 65.5 284.25 65.5C286.25 65.5 287.25 66 288.5 66.5C288 69.5 285.5 71.5 283 71.5ZM309.25 55L304 68.5H303.75L298.25 55H293.25L301.5 74L296.75 84.5H301.5L314.25 55H309.25ZM267.25 75H272V43.75H267.25V75Z" fill="white"/>
<path d="M26 18.7499C25.25 19.4999 25 20.7499 25 22.2499V77.4999C25 78.9999 25.5 80.2499 26.25 80.9999L26.5 81.2499L57.5 50.2499V49.7499L26 18.7499Z" fill="url(#paint0_linear)"/>
<path d="M67.5 60.7499L57.25 50.4999V49.7499L67.5 39.4999L67.75 39.7499L80 46.7499C83.5 48.7499 83.5 51.9999 80 53.9999L67.5 60.7499Z" fill="url(#paint1_linear)"/>
<path d="M67.75 60.4999L57.25 49.9999L26 81.2499C27.25 82.4999 29 82.4999 31.25 81.4999L67.75 60.4999Z" fill="url(#paint2_linear)"/>
<path d="M67.75 39.4999L31.25 18.7499C29 17.4999 27.25 17.7499 26 18.9999L57.25 49.9999L67.75 39.4999Z" fill="url(#paint3_linear)"/>
<path opacity="0.2" d="M67.5 60.2499L31.25 80.7499C29.25 81.9999 27.5 81.7499 26.25 80.7499L26 80.9999L26.25 81.2499C27.5 82.2499 29.25 82.4999 31.25 81.2499L67.5 60.2499Z" fill="black"/>
<path opacity="0.2" d="M26 80.7499C25.25 79.9999 25 78.7499 25 77.2499V77.4999C25 78.9999 25.5 80.2499 26.25 80.9999V80.7499H26ZM80 53.2499L67.5 60.2499L67.75 60.4999L80 53.4999C81.75 52.4999 82.5 51.2499 82.5 49.9999C82.5 51.2499 81.5 52.2499 80 53.2499Z" fill="black"/>
<path opacity="0.2" d="M31.25 18.9999L80 46.7499C81.5 47.75 82.5 48.7499 82.5 49.9999C82.5 48.7499 81.75 47.4999 80 46.4999L31.25 18.7499C27.75 16.7499 25 18.2499 25 22.2499V22.4999C25 18.7499 27.75 16.9999 31.25 18.9999Z" fill="white"/>
<defs>
<linearGradient id="paint0_linear" x1="54.5" y1="21.7749" x2="12.5425" y2="63.7299" gradientUnits="userSpaceOnUse">
<stop stop-color="#00A0FF"/>
<stop offset="0.007" stop-color="#00A1FF"/>
<stop offset="0.26" stop-color="#00BEFF"/>
<stop offset="0.512" stop-color="#00D2FF"/>
<stop offset="0.76" stop-color="#00DFFF"/>
<stop offset="1" stop-color="#00E3FF"/>
</linearGradient>
<linearGradient id="paint1_linear" x1="84.585" y1="50.0024" x2="24.0925" y2="50.0024" gradientUnits="userSpaceOnUse">
<stop stop-color="#FFE000"/>
<stop offset="0.409" stop-color="#FFBD00"/>
<stop offset="0.775" stop-color="#FFA500"/>
<stop offset="1" stop-color="#FF9C00"/>
</linearGradient>
<linearGradient id="paint2_linear" x1="62.0675" y1="55.7399" x2="5.17253" y2="112.635" gradientUnits="userSpaceOnUse">
<stop stop-color="#FF3A44"/>
<stop offset="1" stop-color="#C31162"/>
</linearGradient>
<linearGradient id="paint3_linear" x1="18.2425" y1="0.439914" x2="43.65" y2="25.8474" gradientUnits="userSpaceOnUse">
<stop stop-color="#32A071"/>
<stop offset="0.069" stop-color="#2DA771"/>
<stop offset="0.476" stop-color="#15CF74"/>
<stop offset="0.801" stop-color="#06E775"/>
<stop offset="1" stop-color="#00F076"/>
</linearGradient>
</defs>
</svg>
