<svg width="48" height="48" viewBox="0 0 48 48" fill="none" xmlns="http://www.w3.org/2000/svg">
<circle cx="24" cy="24" r="24" fill="#FBD436"/>
<path d="M12.501 16.4604C15.7949 19.25 21.5747 24.1577 23.2734 25.6879C23.5015 25.8945 23.7461 25.9995 24 25.9995C24.2534 25.9995 24.4976 25.8955 24.7251 25.6899C26.4253 24.1582 32.2051 19.25 35.499 16.4604C35.7041 16.2871 35.7353 15.9824 35.5693 15.7705C35.1855 15.2808 34.6133 15 33.9999 15H14C13.3867 15 12.8145 15.2808 12.4307 15.7705C12.2647 15.9824 12.2959 16.2871 12.501 16.4604Z" fill="#333333"/>
<path d="M35.7099 17.9722C35.5327 17.8897 35.3242 17.9184 35.1767 18.0444C33.0195 19.873 30.1772 22.289 28.0337 24.1328C27.9209 24.2295 27.8575 24.3716 27.8599 24.5205C27.8623 24.6689 27.9312 24.809 28.0474 24.9018C30.0391 26.497 33.0406 28.6914 35.208 30.2509C35.2944 30.3134 35.397 30.3452 35.5 30.3452C35.5781 30.3452 35.6562 30.3271 35.728 30.29C35.8951 30.2045 36 30.0326 36 29.8451V18.4258C36 18.2309 35.8867 18.0537 35.7099 17.9722Z" fill="#333333"/>
<path d="M12.792 30.2509C14.96 28.6914 17.9619 26.4971 19.9531 24.9018C20.0693 24.809 20.1382 24.6689 20.1406 24.5205C20.1431 24.3716 20.0796 24.2295 19.9668 24.1328C17.8232 22.289 14.9804 19.873 12.8233 18.0444C12.6748 17.9184 12.4658 17.8906 12.2901 17.9722C12.1133 18.0537 12 18.2309 12 18.4258V29.8452C12 30.0327 12.105 30.2046 12.272 30.29C12.3437 30.3272 12.4219 30.3452 12.5 30.3452C12.603 30.3452 12.7056 30.3135 12.792 30.2509Z" fill="#333333"/>
<path d="M35.3872 31.6113C33.2939 30.1137 29.4379 27.3218 27.1362 25.4536C26.9487 25.3008 26.6772 25.3056 26.4926 25.4648C26.041 25.8589 25.6631 26.1909 25.395 26.4321C24.5717 27.1752 23.4291 27.1752 22.6039 26.4311C22.3369 26.1904 21.959 25.8574 21.5073 25.4648C21.3242 25.3046 21.0522 25.2997 20.8642 25.4535C18.5702 27.3154 14.7099 30.1107 12.6132 31.6112C12.4965 31.6952 12.4213 31.8246 12.4067 31.9677C12.3925 32.1108 12.4399 32.2528 12.538 32.3583C12.9165 32.7661 13.4497 33 14 33H34C34.5503 33 35.083 32.7661 35.4624 32.3583C35.56 32.2533 35.6079 32.1113 35.5937 31.9682C35.5791 31.8252 35.5039 31.6953 35.3872 31.6113Z" fill="#333333"/>
</svg>
