<svg width="48" height="48" viewBox="0 0 48 48" fill="none" xmlns="http://www.w3.org/2000/svg">
<circle cx="24" cy="24" r="24" fill="#FBD436"/>
<path d="M33.474 23.3672H36.0004C36.0004 16.8872 31.1081 12 24.6193 12V14.5263C29.7502 14.5263 33.474 18.2438 33.474 23.3672Z" fill="#333333"/>
<path d="M24.6319 19.5789C27.2884 19.5789 28.4214 20.712 28.4214 23.3684H30.9477C30.9477 19.2947 28.7056 17.0526 24.6319 17.0526V19.5789ZM28.9545 26.4543C28.7117 26.2337 28.3928 26.1161 28.065 26.1262C27.7371 26.1363 27.426 26.2735 27.1974 26.5086L24.1747 29.6173C23.4471 29.4783 21.9844 29.0223 20.4787 27.5204C18.973 26.0135 18.517 24.5469 18.3818 23.8244L21.4879 20.8004C21.7234 20.572 21.8607 20.2608 21.8709 19.9329C21.881 19.605 21.7632 19.2859 21.5423 19.0434L16.8749 13.9112C16.6539 13.6678 16.3467 13.5202 16.0187 13.4997C15.6906 13.4792 15.3674 13.5874 15.1178 13.8013L12.3768 16.152C12.1584 16.3712 12.028 16.6629 12.0105 16.9718C11.9915 17.2876 11.6303 24.768 17.4307 30.5709C22.4909 35.6299 28.8294 36 30.5751 36C30.8302 36 30.9869 35.9924 31.0286 35.9899C31.3374 35.9726 31.629 35.8417 31.8471 35.6223L34.1966 32.88C34.4106 32.6306 34.519 32.3075 34.4987 31.9794C34.4785 31.6514 34.3311 31.3441 34.0879 31.1229L28.9545 26.4543Z" fill="#333333"/>
</svg>
