<svg width="48" height="48" viewBox="0 0 48 48" fill="none" xmlns="http://www.w3.org/2000/svg">
<circle cx="24" cy="24" r="24" fill="#FBD436"/>
<path d="M35.4497 18.8126C35.6174 18.3438 35.4497 18 34.6568 18H32.0303C31.362 18 31.0566 18.2974 30.8889 18.6241C30.8889 18.6241 29.5535 21.3655 27.6611 23.143C27.0503 23.6602 26.7712 23.8236 26.4382 23.8236C26.2718 23.8236 26.0298 23.6602 26.0298 23.1914V18.8126C26.0298 18.25 25.837 18 25.2801 18H21.1528C20.736 18 20.4845 18.2601 20.4845 18.5082C20.4845 19.0405 21.4307 19.1635 21.5277 20.6638V23.9183C21.5277 24.6312 21.3756 24.7612 21.0402 24.7612C20.1503 24.7612 17.9849 22.0097 16.6998 18.86C16.4494 18.248 16.1967 18.001 15.526 18.001H12.9007C12.1497 18.001 12 18.2984 12 18.6251C12 19.2119 12.8899 22.1156 16.1452 25.956C18.3155 28.5784 21.3708 30 24.1542 30C25.8226 30 26.0286 29.6844 26.0286 29.14V27.1578C26.0286 26.5266 26.1879 26.3996 26.7161 26.3996C27.1042 26.3996 27.7725 26.5649 29.3307 27.8283C31.1105 29.3265 31.4051 29.999 32.4052 29.999H35.0305C35.7803 29.999 36.1552 29.6834 35.9396 29.0603C35.7036 28.4403 34.8533 27.5379 33.725 26.4702C33.1118 25.8612 32.1956 25.2058 31.9165 24.8782C31.5273 24.4557 31.6398 24.2692 31.9165 23.8941C31.9177 23.8951 35.1168 20.1022 35.4497 18.8126Z" fill="#333333"/>
</svg>
