<svg width="338" height="100" viewBox="0 0 338 100" fill="none" xmlns="http://www.w3.org/2000/svg">
<path d="M327.438 100H10.5625C4.75312 100 0 95.5 0 90V10C0 4.5 4.75312 0 10.5625 0H327.438C333.247 0 338 4.5 338 10V90C338 95.5 333.247 100 327.438 100Z" fill="black"/>
<path d="M67.5 49.5001C67.5 41.7501 74 38.0001 74.25 37.7501C70.5 32.5001 65 31.7501 63 31.5001C58.25 31.0001 53.5 34.2501 51.25 34.2501C48.75 34.2501 45 31.5001 41 31.5001C35.75 31.5001 31 34.5001 28.25 39.2501C22.75 48.7501 26.75 62.7501 32 70.5001C34.75 74.2501 37.75 78.5001 41.75 78.2501C45.75 78.0001 47.25 75.7501 52 75.7501C56.75 75.7501 58 78.2501 62.25 78.2501C66.5 78.2501 69.25 74.5001 71.75 70.7501C74.75 66.5001 76 62.2501 76 62.0001C75.75 61.7501 67.5 58.7501 67.5 49.5001Z" fill="white"/>
<path d="M59.75 26.4999C61.75 23.7499 63.25 20.2499 63 16.4999C60 16.7499 56 18.4999 54 21.2499C52 23.4999 50.25 27.2499 50.75 30.7499C54 30.9999 57.5 28.9999 59.75 26.4999Z" fill="white"/>
<path d="M124.5 77.7498H119L116 68.2498H105.5L102.75 77.7498H97.5L108 45.4998H114.5L124.5 77.7498ZM115 64.2498L112.25 55.7498C112 54.9998 111.5 52.7498 110.5 49.7498C110.25 50.9998 109.75 53.2498 109 55.7498L106.25 64.2498H115Z" fill="white"/>
<path d="M151.25 65.9999C151.25 69.9999 150.25 72.9999 148 75.4999C146 77.4999 143.75 78.4999 140.75 78.4999C137.75 78.4999 135.5 77.4999 134.25 75.2499V87.4999H129V62.4999C129 59.9999 129 57.4999 128.75 54.7499H133.25L133.5 58.4999C135.25 55.7499 137.75 54.2499 141.25 54.2499C144 54.2499 146.25 55.2499 148 57.4999C150.25 59.4999 151.25 62.2499 151.25 65.9999ZM146 65.9999C146 63.7499 145.5 61.7499 144.5 60.4999C143.5 58.9999 142 58.2499 140 58.2499C138.75 58.2499 137.5 58.7499 136.5 59.4999C135.5 60.2499 134.75 61.4999 134.5 62.7499C134.25 63.4999 134.25 63.9999 134.25 64.2499V68.2499C134.25 69.9999 134.75 71.2499 135.75 72.4999C136.75 73.7499 138.25 74.2499 139.75 74.2499C141.75 74.2499 143.25 73.4999 144.25 71.9999C145.5 70.4999 146 68.4999 146 65.9999Z" fill="white"/>
<path d="M178 65.9999C178 69.9999 177 72.9999 174.75 75.4999C172.75 77.4999 170.5 78.4999 167.5 78.4999C164.5 78.4999 162.25 77.4999 161 75.2499V87.4999H155.75V62.4999C155.75 59.9999 155.75 57.4999 155.5 54.7499H160L160.25 58.4999C162 55.7499 164.5 54.2499 168 54.2499C170.75 54.2499 173 55.2499 174.75 57.4999C177 59.4999 178 62.2499 178 65.9999ZM172.75 65.9999C172.75 63.7499 172.25 61.7499 171.25 60.4999C170.25 58.9999 168.75 58.2499 166.75 58.2499C165.5 58.2499 164.25 58.7499 163.25 59.4999C162.25 60.2499 161.5 61.4999 161.25 62.7499C161 63.4999 161 63.9999 161 64.2499V68.2499C161 69.9999 161.5 71.2499 162.5 72.4999C163.5 73.7499 165 74.2499 166.5 74.2499C168.5 74.2499 170 73.4999 171 71.9999C172.25 70.4999 172.75 68.4999 172.75 65.9999Z" fill="white"/>
<path d="M208 68.7499C208 71.4999 207 73.7499 205.25 75.4999C203.25 77.4999 200.25 78.2499 196.5 78.2499C193 78.2499 190.25 77.4999 188.25 76.2499L189.5 71.9999C191.75 73.2499 194.25 73.9999 197 73.9999C199 73.9999 200.5 73.4999 201.5 72.7499C202.5 71.7499 203 70.7499 203 69.2499C203 67.9999 202.5 66.7499 201.75 65.9999C200.75 64.9999 199.25 64.2499 197.25 63.4999C191.5 61.4999 188.75 58.2499 188.75 54.2499C188.75 51.4999 189.75 49.4999 191.75 47.7499C193.75 45.9999 196.25 45.2499 199.75 45.2499C202.75 45.2499 205 45.7499 207 46.7499L205.75 50.9999C204 49.9999 202 49.4999 199.5 49.4999C197.75 49.4999 196.25 49.9999 195.25 50.7499C194.5 51.4999 194 52.4999 194 53.7499C194 54.9999 194.5 55.9999 195.5 56.9999C196.25 57.7499 198 58.4999 200.25 59.4999C203 60.4999 205 61.9999 206.5 63.4999C207.25 64.7499 208 66.4999 208 68.7499Z" fill="white"/>
<path d="M225 58.4999H219.25V69.7499C219.25 72.4999 220.25 73.9999 222.25 73.9999C223.25 73.9999 224 73.9999 224.5 73.7499L224.75 77.7499C223.75 78.2499 222.5 78.2499 220.75 78.2499C218.75 78.2499 217 77.7499 216 76.4999C214.75 75.2499 214.25 73.2499 214.25 70.2499V58.4999H210.75V54.4999H214.25V50.2499L219.25 48.7499V54.4999H225V58.4999Z" fill="white"/>
<path d="M250.75 65.9999C250.75 69.4999 249.75 72.4999 247.75 74.7499C245.5 76.9999 242.75 78.2499 239.25 78.2499C235.75 78.2499 233 76.9999 231 74.7499C229 72.4999 228 69.7499 228 66.2499C228 62.7499 229 59.7499 231.25 57.4999C233.25 55.2499 236.25 53.9999 239.75 53.9999C243.25 53.9999 246 55.2499 248 57.4999C249.75 59.7499 250.75 62.4999 250.75 65.9999ZM245.25 66.2499C245.25 63.9999 244.75 62.2499 243.75 60.7499C242.75 58.9999 241 57.9999 239 57.9999C237 57.9999 235.25 58.9999 234.25 60.7499C233.25 62.2499 232.75 64.2499 232.75 66.2499C232.75 68.4999 233.25 70.2499 234.25 71.7499C235.25 73.4999 237 74.4999 239 74.4999C241 74.4999 242.5 73.4999 243.75 71.7499C244.75 70.2499 245.25 68.2499 245.25 66.2499Z" fill="white"/>
<path d="M267.5 59.0001C267 59.0001 266.5 58.7501 265.75 58.7501C264 58.7501 262.5 59.5001 261.5 60.7501C260.75 62.0001 260.25 63.5001 260.25 65.2501V77.5001H255V61.5001C255 58.7501 255 56.5001 254.75 54.2501H259.25L259.5 58.7501H259.75C260.25 57.2501 261.25 56.0001 262.25 55.0001C263.5 54.2501 264.75 53.7501 266 53.7501C266.5 53.7501 267 53.7501 267.25 53.7501V59.0001H267.5Z" fill="white"/>
<path d="M290.5 64.9999C290.5 65.9999 290.5 66.7499 290.25 67.2499H274.75C274.75 69.4999 275.5 71.2499 277 72.4999C278.25 73.4999 280 74.2499 282 74.2499C284.25 74.2499 286.5 73.9999 288.25 73.2499L289 76.7499C286.75 77.7499 284.25 78.2499 281.25 78.2499C277.75 78.2499 274.75 77.2499 272.75 74.9999C270.75 72.9999 269.75 69.9999 269.75 66.4999C269.75 62.9999 270.75 59.9999 272.5 57.7499C274.5 55.2499 277.25 53.9999 280.75 53.9999C284 53.9999 286.75 55.2499 288.25 57.7499C290 59.7499 290.5 62.2499 290.5 64.9999ZM285.75 63.7499C285.75 62.2499 285.5 60.9999 284.75 59.7499C283.75 58.2499 282.5 57.4999 280.75 57.4999C279 57.4999 277.75 58.2499 276.75 59.4999C276 60.4999 275.5 61.9999 275.25 63.4999H285.75V63.7499Z" fill="white"/>
<path d="M113.5 25.7501C113.5 28.5001 112.75 30.7501 111 32.2501C109.5 33.5001 107.25 34.2501 104.25 34.2501C102.75 34.2501 101.5 34.2501 100.5 34.0001V18.5001C101.75 18.2501 103.25 18.2501 105 18.2501C107.75 18.2501 109.75 18.7501 111.25 20.0001C112.5 21.2501 113.5 23.2501 113.5 25.7501ZM110.75 25.7501C110.75 24.0001 110.25 22.5001 109.25 21.5001C108.25 20.5001 106.75 20.0001 105 20.0001C104.25 20.0001 103.5 20.0001 103 20.2501V32.0001C103.25 32.0001 104 32.0001 104.75 32.0001C106.75 32.0001 108.25 31.5001 109.25 30.5001C110.25 29.5001 110.75 27.7501 110.75 25.7501Z" fill="white"/>
<path d="M127.5 28.25C127.5 30 127 31.5 126 32.5C125 33.75 123.5 34.25 121.75 34.25C120 34.25 118.75 33.75 117.75 32.5C116.75 31.5 116.25 30 116.25 28.25C116.25 26.5 116.75 25 117.75 24C118.75 22.75 120.25 22.25 122 22.25C123.75 22.25 125 22.75 126 24C127 25 127.5 26.5 127.5 28.25ZM125 28.25C125 27.25 124.75 26.25 124.25 25.5C123.75 24.5 123 24.25 122 24.25C121 24.25 120.25 24.75 119.75 25.5C119.25 26.25 119 27.25 119 28.25C119 29.25 119.25 30.25 119.75 31C120.25 32 121 32.25 122 32.25C123 32.25 123.75 31.75 124.25 30.75C124.75 30.25 125 29.25 125 28.25Z" fill="white"/>
<path d="M146.75 22.5001L143.25 34.0001H141L139.5 29.0001C139 27.7501 138.75 26.5001 138.5 25.2501C138.25 26.5001 138 27.7501 137.5 29.0001L136 34.0001H133.75L130 22.5001H132.5L133.75 28.0001C134 29.2501 134.25 30.5001 134.5 31.7501C134.75 30.7501 135 29.5001 135.5 28.0001L137 22.5001H139L140.5 27.7501C141 29.0001 141.25 30.2501 141.5 31.5001C141.75 30.2501 142 29.0001 142.25 27.7501L143.75 22.5001H146.75Z" fill="white"/>
<path d="M159.75 34.0001H157.25V27.5001C157.25 25.5001 156.5 24.5001 155 24.5001C154.25 24.5001 153.75 24.7501 153.25 25.2501C152.75 25.7501 152.5 26.5001 152.5 27.2501V34.0001H150V25.7501C150 24.7501 150 23.7501 150 22.5001H152.25V24.2501C152.5 23.7501 153 23.2501 153.5 22.7501C154.25 22.2501 155 22.0001 155.75 22.0001C156.75 22.0001 157.75 22.2501 158.5 23.0001C159.5 23.7501 159.75 25.0001 159.75 26.7501V34.0001Z" fill="white"/>
<path d="M166.75 34.0001H164.25V17.2501H166.75V34.0001Z" fill="white"/>
<path d="M181.75 28.25C181.75 30 181.25 31.5 180.25 32.5C179.25 33.75 177.75 34.25 176 34.25C174.25 34.25 173 33.75 172 32.5C171 31.5 170.5 30 170.5 28.25C170.5 26.5 171 25 172 24C173 23 174.5 22.25 176.25 22.25C178 22.25 179.25 22.75 180.25 24C181.25 25 181.75 26.5 181.75 28.25ZM179.25 28.25C179.25 27.25 179 26.25 178.5 25.5C178 24.5 177.25 24.25 176.25 24.25C175.25 24.25 174.5 24.75 174 25.5C173.5 26.25 173.25 27.25 173.25 28.25C173.25 29.25 173.5 30.25 174 31C174.5 32 175.25 32.25 176.25 32.25C177.25 32.25 178 31.75 178.5 30.75C179 30.25 179.25 29.25 179.25 28.25Z" fill="white"/>
<path d="M194 34H191.75L191.5 32.75C190.75 33.75 189.5 34.25 188.25 34.25C187.25 34.25 186.25 34 185.75 33.25C185.25 32.5 184.75 31.75 184.75 31C184.75 29.5 185.25 28.5 186.5 27.75C187.75 27 189.25 26.75 191.5 26.75V26.5C191.5 25 190.75 24.25 189.25 24.25C188 24.25 187.25 24.5 186.25 25L185.75 23.25C186.75 22.5 188 22.25 189.75 22.25C192.75 22.25 194.25 23.75 194.25 27V31.25C194 32.5 194 33.25 194 34ZM191.5 30V28.25C188.75 28.25 187.25 29 187.25 30.5C187.25 31 187.5 31.5 187.75 31.75C188 32 188.5 32.25 189 32.25C189.5 32.25 190 32 190.5 31.75C191 31.5 191.25 31 191.5 30.5C191.5 30.5 191.5 30.25 191.5 30Z" fill="white"/>
<path d="M208.5 33.9999H206.25V32.2499C205.5 33.7499 204.25 34.2499 202.5 34.2499C201 34.2499 200 33.7499 199 32.7499C198 31.7499 197.75 30.2499 197.75 28.4999C197.75 26.7499 198.25 25.2499 199.25 23.9999C200.25 22.9999 201.5 22.4999 202.75 22.4999C204.25 22.4999 205.25 22.9999 206 23.9999V17.4999H208.5V30.9999C208.5 31.9999 208.5 32.9999 208.5 33.9999ZM206 29.2499V27.2499C206 26.9999 206 26.7499 206 26.4999C205.75 25.9999 205.5 25.4999 205 24.9999C204.5 24.4999 204 24.4999 203.25 24.4999C202.25 24.4999 201.5 24.9999 201 25.7499C200.5 26.4999 200.25 27.4999 200.25 28.7499C200.25 29.9999 200.5 30.7499 201 31.4999C201.5 32.2499 202.25 32.7499 203.25 32.7499C204 32.7499 204.75 32.4999 205.25 31.7499C205.75 30.7499 206 29.9999 206 29.2499Z" fill="white"/>
<path d="M230.25 28.25C230.25 30 229.75 31.5 228.75 32.5C227.75 33.75 226.25 34.25 224.5 34.25C222.75 34.25 221.5 33.75 220.5 32.5C219.5 31.5 219 30 219 28.25C219 26.5 219.5 25 220.5 24C221.5 22.75 223 22.25 224.75 22.25C226.5 22.25 227.75 22.75 228.75 24C229.75 25 230.25 26.5 230.25 28.25ZM227.5 28.25C227.5 27.25 227.25 26.25 226.75 25.5C226.25 24.5 225.5 24.25 224.5 24.25C223.5 24.25 222.75 24.75 222.25 25.5C221.75 26.25 221.5 27.25 221.5 28.25C221.5 29.25 221.75 30.25 222.25 31C222.75 32 223.5 32.25 224.5 32.25C225.5 32.25 226.25 31.75 226.75 30.75C227.25 30.25 227.5 29.25 227.5 28.25Z" fill="white"/>
<path d="M244 34.0001H241.5V27.5001C241.5 25.5001 240.75 24.5001 239.25 24.5001C238.5 24.5001 238 24.7501 237.5 25.2501C237 25.7501 236.75 26.5001 236.75 27.2501V34.0001H234.25V25.7501C234.25 24.7501 234.25 23.7501 234.25 22.5001H236.5V24.2501C236.75 23.7501 237.25 23.2501 237.75 22.7501C238.5 22.2501 239.25 22.0001 240 22.0001C241 22.0001 242 22.2501 242.75 23.0001C243.75 23.7501 244 25.0001 244 26.7501V34.0001Z" fill="white"/>
<path d="M261 24.5H258.25V30C258.25 31.5 258.75 32 259.75 32C260.25 32 260.5 32 261 32V34C260.5 34.25 259.75 34.25 259 34.25C258 34.25 257.25 34 256.75 33.25C256.25 32.75 256 31.5 256 30.25V24.5H254.25V22.5H256V20.5L258.5 19.75V22.5H261.25V24.5H261Z" fill="white"/>
<path d="M274.5 34.0001H272V27.5001C272 25.5001 271.25 24.5001 269.75 24.5001C268.5 24.5001 267.75 25.0001 267.25 26.2501C267.25 26.5001 267.25 26.7501 267.25 27.2501V34.0001H264.75V17.2501H267.25V24.2501C268 23.0001 269.25 22.2501 270.75 22.2501C271.75 22.2501 272.75 22.5001 273.25 23.2501C274 24.0001 274.5 25.5001 274.5 27.0001V34.0001Z" fill="white"/>
<path d="M288.25 27.7501C288.25 28.2501 288.25 28.5001 288.25 29.0001H280.75C280.75 30.2501 281.25 31.0001 281.75 31.5001C282.5 32.0001 283.25 32.2501 284.25 32.2501C285.5 32.2501 286.5 32.0001 287.25 31.7501L287.75 33.5001C286.75 34.0001 285.5 34.2501 284 34.2501C282.25 34.2501 280.75 33.7501 279.75 32.7501C278.75 31.7501 278.25 30.2501 278.25 28.5001C278.25 26.7501 278.75 25.2501 279.75 24.2501C280.75 23.0001 282 22.5001 283.75 22.5001C285.5 22.5001 286.75 23.0001 287.5 24.2501C288 25.0001 288.25 26.2501 288.25 27.7501ZM286 27.0001C286 26.2501 285.75 25.5001 285.5 25.0001C285 24.2501 284.5 24.0001 283.5 24.0001C282.75 24.0001 282 24.2501 281.5 25.0001C281 25.5001 280.75 26.2501 280.75 27.0001H286Z" fill="white"/>
</svg>
