<svg width="48" height="48" viewBox="0 0 48 48" fill="none" xmlns="http://www.w3.org/2000/svg">
<circle cx="24" cy="24" r="24" fill="#FBD436"/>
<path d="M25.8906 35H22.0938V18.0938H25.8906V35ZM21.8594 13.7031C21.8594 13.1198 22.0417 12.6354 22.4062 12.25C22.7812 11.8646 23.3125 11.6719 24 11.6719C24.6875 11.6719 25.2188 11.8646 25.5938 12.25C25.9688 12.6354 26.1562 13.1198 26.1562 13.7031C26.1562 14.276 25.9688 14.7552 25.5938 15.1406C25.2188 15.5156 24.6875 15.7031 24 15.7031C23.3125 15.7031 22.7812 15.5156 22.4062 15.1406C22.0417 14.7552 21.8594 14.276 21.8594 13.7031Z" fill="#333333"/>
</svg>
