<svg width="48" height="48" viewBox="0 0 48 48" fill="none" xmlns="http://www.w3.org/2000/svg">
<circle cx="24" cy="24" r="24" fill="#FBD436"/>
<path d="M35.766 12.0981C35.5929 11.9771 35.3665 11.9676 35.1839 12.072L12.2749 25.1628C12.0879 25.2693 11.9814 25.476 12.0027 25.6902C12.024 25.9044 12.1689 26.086 12.3729 26.1536L19.2141 28.4339L21.8512 35.642C21.9306 35.8589 22.1367 36 22.3631 36C22.3838 36 22.4052 35.9989 22.4259 35.9963C22.5733 35.9793 22.6973 35.9001 22.7849 35.7901L26.671 30.9197L32.0092 32.6991C32.0656 32.7182 32.1237 32.7273 32.1818 32.7273C32.2798 32.7273 32.3773 32.7006 32.463 32.649C32.5999 32.567 32.6936 32.429 32.7198 32.2714L35.9925 12.6351C36.0271 12.4272 35.9392 12.2185 35.766 12.0981ZM22.6923 28.8398C22.6363 28.916 22.6006 29.0049 22.5895 29.0987L22.0968 33.1374L20.2698 28.1437L30.9375 17.7215L22.6923 28.8398Z" fill="#333333"/>
</svg>
